
<group>
pitchlfo_freq=0.01
fillfo_freq=0.01
amplfo_freq=0.01
ampeg_release=0.100

<region>
sample=Samples\Picked2#Muted-E2_1.wav
lokey=40
hikey=40
hivel=35
pitch_keycenter=40

<region>
sample=Samples\Picked2#Muted-E2_2.wav
lokey=40
hikey=40
lovel=36
hivel=61
pitch_keycenter=40

<region>
sample=Samples\Picked2#Muted-E2_3.wav
lokey=40
hikey=40
lovel=62
hivel=87
pitch_keycenter=40

<region>
sample=Samples\Picked2#Muted-E2_4.wav
lokey=40
hikey=40
lovel=88
hivel=113
pitch_keycenter=40

<region>
sample=Samples\Picked2#Muted-E2_5.wav
lokey=40
hikey=40
lovel=114
pitch_keycenter=40

<region>
sample=Samples\Picked2#Muted-F2_1.wav
lokey=41
hikey=42
hivel=35
pitch_keycenter=41

<region>
sample=Samples\Picked2#Muted-F2_2.wav
lokey=41
hikey=42
lovel=36
hivel=61
pitch_keycenter=41

<region>
sample=Samples\Picked2#Muted-F2_3.wav
lokey=41
hikey=42
lovel=62
hivel=87
pitch_keycenter=41

<region>
sample=Samples\Picked2#Muted-F2_4.wav
lokey=41
hikey=42
lovel=88
hivel=113
pitch_keycenter=41

<region>
sample=Samples\Picked2#Muted-F2_5.wav
lokey=41
hikey=42
lovel=114
pitch_keycenter=41

<region>
sample=Samples\Picked2#Muted-G2_1.wav
lokey=43
hikey=44
hivel=35
pitch_keycenter=43

<region>
sample=Samples\Picked2#Muted-G2_2.wav
lokey=43
hikey=44
lovel=36
hivel=61
pitch_keycenter=43

<region>
sample=Samples\Picked2#Muted-G2_3.wav
lokey=43
hikey=44
lovel=62
hivel=87
pitch_keycenter=43

<region>
sample=Samples\Picked2#Muted-G2_4.wav
lokey=43
hikey=44
lovel=88
hivel=113
pitch_keycenter=43

<region>
sample=Samples\Picked2#Muted-G2_5.wav
lokey=43
hikey=44
lovel=114
pitch_keycenter=43

<region>
sample=Samples\Picked2#Muted-A2_1.wav
lokey=45
hikey=46
hivel=35
pitch_keycenter=45

<region>
sample=Samples\Picked2#Muted-A2_2.wav
lokey=45
hikey=46
lovel=36
hivel=61
pitch_keycenter=45

<region>
sample=Samples\Picked2#Muted-A2_3.wav
lokey=45
hikey=46
lovel=62
hivel=87
pitch_keycenter=45

<region>
sample=Samples\Picked2#Muted-A2_4.wav
lokey=45
hikey=46
lovel=88
hivel=113
pitch_keycenter=45

<region>
sample=Samples\Picked2#Muted-A2_5.wav
lokey=45
hikey=46
lovel=114
pitch_keycenter=45

<region>
sample=Samples\Picked2#Muted-B2_1.wav
lokey=47
hikey=47
hivel=35
pitch_keycenter=47

<region>
sample=Samples\Picked2#Muted-B2_2.wav
lokey=47
hikey=47
lovel=36
hivel=61
pitch_keycenter=47

<region>
sample=Samples\Picked2#Muted-B2_3.wav
lokey=47
hikey=47
lovel=62
hivel=87
pitch_keycenter=47

<region>
sample=Samples\Picked2#Muted-B2_4.wav
lokey=47
hikey=47
lovel=88
hivel=113
pitch_keycenter=47

<region>
sample=Samples\Picked2#Muted-B2_5.wav
lokey=47
hikey=47
lovel=114
pitch_keycenter=47

<region>
sample=Samples\Picked2#Muted-D2_1.wav
lokey=50
hikey=51
hivel=35
pitch_keycenter=50

<region>
sample=Samples\Picked2#Muted-D2_2.wav
lokey=50
hikey=51
lovel=36
hivel=61
pitch_keycenter=50

<region>
sample=Samples\Picked2#Muted-D2_3.wav
lokey=50
hikey=51
lovel=62
hivel=87
pitch_keycenter=50

<region>
sample=Samples\Picked2#Muted-D2_4.wav
lokey=50
hikey=51
lovel=88
hivel=113
pitch_keycenter=50

<region>
sample=Samples\Picked2#Muted-D2_5.wav
lokey=50
hikey=51
lovel=114
pitch_keycenter=50

<region>
sample=Samples\Picked2#Muted-E3_1.wav
lokey=52
hikey=52
hivel=35
pitch_keycenter=52

<region>
sample=Samples\Picked2#Muted-E3_2.wav
lokey=52
hikey=52
lovel=36
hivel=61
pitch_keycenter=52

<region>
sample=Samples\Picked2#Muted-E3_3.wav
lokey=52
hikey=52
lovel=62
hivel=87
pitch_keycenter=52

<region>
sample=Samples\Picked2#Muted-E3_4.wav
lokey=52
hikey=52
lovel=88
hivel=113
pitch_keycenter=52

<region>
sample=Samples\Picked2#Muted-E3_5.wav
lokey=52
hikey=52
lovel=114
pitch_keycenter=52

<region>
sample=Samples\Picked2#Muted-F3_1.wav
lokey=53
hikey=54
hivel=35
pitch_keycenter=53

<region>
sample=Samples\Picked2#Muted-F3_2.wav
lokey=53
hikey=54
lovel=36
hivel=61
pitch_keycenter=53

<region>
sample=Samples\Picked2#Muted-F3_3.wav
lokey=53
hikey=54
lovel=62
hivel=87
pitch_keycenter=53

<region>
sample=Samples\Picked2#Muted-F3_4.wav
lokey=53
hikey=54
lovel=88
hivel=113
pitch_keycenter=53

<region>
sample=Samples\Picked2#Muted-F3_5.wav
lokey=53
hikey=54
lovel=114
pitch_keycenter=53

<region>
sample=Samples\Picked2#Muted-G3_1.wav
lokey=55
hikey=56
hivel=35
pitch_keycenter=55

<region>
sample=Samples\Picked2#Muted-G3_2.wav
lokey=55
hikey=56
lovel=36
hivel=61
pitch_keycenter=55

<region>
sample=Samples\Picked2#Muted-G3_3.wav
lokey=55
hikey=56
lovel=62
hivel=87
pitch_keycenter=55

<region>
sample=Samples\Picked2#Muted-G3_4.wav
lokey=55
hikey=56
lovel=88
hivel=113
pitch_keycenter=55

<region>
sample=Samples\Picked2#Muted-G3_5.wav
lokey=55
hikey=56
lovel=114
pitch_keycenter=55

<region>
sample=Samples\Picked2#Muted-A3_1.wav
lokey=57
hikey=58
hivel=35
pitch_keycenter=57

<region>
sample=Samples\Picked2#Muted-A3_2.wav
lokey=57
hikey=58
lovel=36
hivel=61
pitch_keycenter=57

<region>
sample=Samples\Picked2#Muted-A3_3.wav
lokey=57
hikey=58
lovel=62
hivel=87
pitch_keycenter=57

<region>
sample=Samples\Picked2#Muted-A3_4.wav
lokey=57
hikey=58
lovel=88
hivel=113
pitch_keycenter=57

<region>
sample=Samples\Picked2#Muted-A3_5.wav
lokey=57
hikey=58
lovel=114
pitch_keycenter=57

<region>
sample=Samples\Picked2#Muted-B3_1.wav
lokey=59
hikey=59
hivel=35
pitch_keycenter=59

<region>
sample=Samples\Picked2#Muted-B3_2.wav
lokey=59
hikey=59
lovel=36
hivel=61
pitch_keycenter=59

<region>
sample=Samples\Picked2#Muted-B3_3.wav
lokey=59
hikey=59
lovel=62
hivel=87
pitch_keycenter=59

<region>
sample=Samples\Picked2#Muted-B3_4.wav
lokey=59
hikey=59
lovel=88
hivel=113
pitch_keycenter=59

<region>
sample=Samples\Picked2#Muted-B3_5.wav
lokey=59
hikey=59
lovel=114
pitch_keycenter=59

<region>
sample=Samples\Picked2#Muted-C3_1.wav
lokey=60
hikey=61
hivel=35

<region>
sample=Samples\Picked2#Muted-C3_2.wav
lokey=60
hikey=61
lovel=36
hivel=61

<region>
sample=Samples\Picked2#Muted-C3_3.wav
lokey=60
hikey=61
lovel=62
hivel=87

<region>
sample=Samples\Picked2#Muted-C3_4.wav
lokey=60
hikey=61
lovel=88
hivel=113

<region>
sample=Samples\Picked2#Muted-C3_5.wav
lokey=60
hikey=61
lovel=114

<region>
sample=Samples\Picked2#Muted-D3_1.wav
lokey=62
hikey=63
hivel=35
pitch_keycenter=62

<region>
sample=Samples\Picked2#Muted-D3_2.wav
lokey=62
hikey=63
lovel=36
hivel=61
pitch_keycenter=62

<region>
sample=Samples\Picked2#Muted-D3_3.wav
lokey=62
hikey=63
lovel=62
hivel=87
pitch_keycenter=62

<region>
sample=Samples\Picked2#Muted-D3_4.wav
lokey=62
hikey=63
lovel=88
hivel=113
pitch_keycenter=62

<region>
sample=Samples\Picked2#Muted-D3_5.wav
lokey=62
hikey=63
lovel=114
pitch_keycenter=62

<region>
sample=Samples\Picked2#Muted-C1_1.wav
lokey=36
hikey=37
hivel=35
pitch_keycenter=36

<region>
sample=Samples\Picked2#Muted-C1_2.wav
lokey=36
hikey=37
lovel=36
hivel=61
pitch_keycenter=36

<region>
sample=Samples\Picked2#Muted-C1_3.wav
lokey=36
hikey=37
lovel=62
hivel=87
pitch_keycenter=36

<region>
sample=Samples\Picked2#Muted-C1_4.wav
lokey=36
hikey=37
lovel=88
hivel=113
pitch_keycenter=36

<region>
sample=Samples\Picked2#Muted-C1_5.wav
lokey=36
hikey=37
lovel=114
pitch_keycenter=36

<region>
sample=Samples\Picked2#Muted-D1_1.wav
lokey=38
hikey=39
hivel=35
pitch_keycenter=38

<region>
sample=Samples\Picked2#Muted-D1_2.wav
lokey=38
hikey=39
lovel=36
hivel=61
pitch_keycenter=38

<region>
sample=Samples\Picked2#Muted-D1_3.wav
lokey=38
hikey=39
lovel=62
hivel=87
pitch_keycenter=38

<region>
sample=Samples\Picked2#Muted-D1_4.wav
lokey=38
hikey=39
lovel=88
hivel=113
pitch_keycenter=38

<region>
sample=Samples\Picked2#Muted-D1_5.wav
lokey=38
hikey=39
lovel=114
pitch_keycenter=38

<region>
sample=Samples\Picked2#Muted-E1_1.wav
lokey=24
hikey=28
hivel=35
pitch_keycenter=28

<region>
sample=Samples\Picked2#Muted-E1_2.wav
lokey=24
hikey=28
lovel=36
hivel=61
pitch_keycenter=28

<region>
sample=Samples\Picked2#Muted-E1_3.wav
lokey=24
hikey=28
lovel=62
hivel=87
pitch_keycenter=28

<region>
sample=Samples\Picked2#Muted-E1_4.wav
lokey=24
hikey=28
lovel=88
hivel=113
pitch_keycenter=28

<region>
sample=Samples\Picked2#Muted-E1_5.wav
lokey=24
hikey=28
lovel=114
pitch_keycenter=28

<region>
sample=Samples\Picked2#Muted-F1_1.wav
lokey=29
hikey=30
hivel=35
pitch_keycenter=29

<region>
sample=Samples\Picked2#Muted-F1_2.wav
lokey=29
hikey=30
lovel=36
hivel=61
pitch_keycenter=29

<region>
sample=Samples\Picked2#Muted-F1_3.wav
lokey=29
hikey=30
lovel=62
hivel=87
pitch_keycenter=29

<region>
sample=Samples\Picked2#Muted-F1_4.wav
lokey=29
hikey=30
lovel=88
hivel=113
pitch_keycenter=29

<region>
sample=Samples\Picked2#Muted-F1_5.wav
lokey=29
hikey=30
lovel=114
pitch_keycenter=29

<region>
sample=Samples\Picked2#Muted-G1_1.wav
lokey=31
hikey=32
hivel=35
pitch_keycenter=31

<region>
sample=Samples\Picked2#Muted-G1_2.wav
lokey=31
hikey=32
lovel=36
hivel=61
pitch_keycenter=31

<region>
sample=Samples\Picked2#Muted-G1_3.wav
lokey=31
hikey=32
lovel=62
hivel=87
pitch_keycenter=31

<region>
sample=Samples\Picked2#Muted-G1_4.wav
lokey=31
hikey=32
lovel=88
hivel=113
pitch_keycenter=31

<region>
sample=Samples\Picked2#Muted-G1_5.wav
lokey=31
hikey=32
lovel=114
pitch_keycenter=31

<region>
sample=Samples\Picked2#Muted-A1_1.wav
lokey=33
hikey=34
hivel=35
pitch_keycenter=33

<region>
sample=Samples\Picked2#Muted-A1_2.wav
lokey=33
hikey=34
lovel=36
hivel=61
pitch_keycenter=33

<region>
sample=Samples\Picked2#Muted-A1_3.wav
lokey=33
hikey=34
lovel=62
hivel=87
pitch_keycenter=33

<region>
sample=Samples\Picked2#Muted-A1_4.wav
lokey=33
hikey=34
lovel=88
hivel=113
pitch_keycenter=33

<region>
sample=Samples\Picked2#Muted-A1_5.wav
lokey=33
hikey=34
lovel=114
pitch_keycenter=33

<region>
sample=Samples\Picked2#Muted-B1_1.wav
lokey=35
hikey=35
hivel=35
pitch_keycenter=35

<region>
sample=Samples\Picked2#Muted-B1_2.wav
lokey=35
hikey=35
lovel=36
hivel=61
pitch_keycenter=35

<region>
sample=Samples\Picked2#Muted-B1_3.wav
lokey=35
hikey=35
lovel=62
hivel=87
pitch_keycenter=35

<region>
sample=Samples\Picked2#Muted-B1_4.wav
lokey=35
hikey=35
lovel=88
hivel=113
pitch_keycenter=35

<region>
sample=Samples\Picked2#Muted-B1_5.wav
lokey=35
hikey=35
lovel=114
pitch_keycenter=35

<region>
sample=Samples\Picked2#Muted-C2_1.wav
lokey=48
hikey=49
hivel=35
pitch_keycenter=48

<region>
sample=Samples\Picked2#Muted-C2_2.wav
lokey=48
hikey=49
lovel=36
hivel=61
pitch_keycenter=48

<region>
sample=Samples\Picked2#Muted-C2_3.wav
lokey=48
hikey=49
lovel=62
hivel=87
pitch_keycenter=48

<region>
sample=Samples\Picked2#Muted-C2_4.wav
lokey=48
hikey=49
lovel=88
hivel=113
pitch_keycenter=48

<region>
sample=Samples\Picked2#Muted-C2_5.wav
lokey=48
hikey=49
lovel=114
pitch_keycenter=48
